# xmcd CD database file
#
# Track frame offsets:
#	150
#	26930
#	50329
#
# Disc length: 1028 seconds
#
# Revision: 2
# Processed by: cddbd v1.5.1PL2 Copyright (c) Steve Scherf et al.
# Submitted via: CDex 1.51
#
DISCID=21040203
DTITLE=松崎しげる - ひとりひとりの心に深く
DYEAR=1900
DGENRE=JPop
TTITLE0=ひとりひとりの心に深く
TTITLE1=君から世界へ
TTITLE2=ひとりひとりの心に深く(Instrumental)
EXTD=
EXTT0=
EXTT1=
EXTT2=
PLAYORDER=
